<?xml version="1.0" encoding="UTF-8"?>
<svg id="a" data-name="Layer 10" xmlns="http://www.w3.org/2000/svg" viewBox="0 0 14.17 15.06">
  <path d="m3.68,14.61c-.61,0-1.19-.23-1.62-.66-.44-.42-.69-.99-.72-1.59,0-.07-.04-.13-.1-.17-.76-.42-1.23-1.2-1.23-2.05V2.87C0,1.57,1.06.52,2.35.52h8.01c1.17,0,2.17.88,2.32,2.06,0,.07.05.13.11.16.84.39,1.37,1.22,1.37,2.13v7.39c0,1.3-1.06,2.35-2.35,2.35H3.68Zm-1.52-2.09s-.03.03-.05.04c-.04.05-.05.12-.03.18.22.72.86,1.2,1.6,1.2h8.14c.93,0,1.68-.75,1.68-1.68v-7.39c0-.83-.6-1.52-1.42-1.66-.01,0-.02,0-.03,0h-.12s-.05-.02-.07-.02c0,0-.02,0-.04,0H3.68c-.93,0-1.68.75-1.68,1.68v6.73c0,.09.07.18.16.19v.72Zm.2-11.32c-.93,0-1.68.75-1.68,1.68v7.26c0,.34.1.66.29.94.04.06.14.17.18.22.07.08.14.15.17.12.04-.05.01-.36.01-.45v-6.1c0-1.3,1.06-2.35,2.35-2.35h8.05c.07,0,.21,0,.23-.04.03-.04-.03-.17-.05-.23-.26-.64-.87-1.05-1.55-1.05H2.35Z"/>
  <rect x="5.59" y="11.81" width=".66" height=".67"/>
  <rect x="3.46" y="11.81" width=".66" height=".67"/>
  <rect x="7.71" y="11.81" width=".66" height=".67"/>
  <rect x="12.04" y="6.79" width=".67" height=".66"/>
  <rect x="12.04" y="8.91" width=".67" height=".66"/>
  <rect x="12.04" y="4.67" width=".67" height=".66"/>
  <path d="m9.83,12.49v-.67h.52s.05,0,.08,0l.11.67c-.07,0-.13,0-.2,0h-.52Z"/>
  <path d="m11.58,11.29c.11-.12.21-.25.28-.4l.63.23c-.12.25-.28.48-.48.68l-.43-.52Z"/>
</svg>